<svg width="18" height="18" viewBox="0 0 18 18" fill="none" xmlns="http://www.w3.org/2000/svg">
<path d="M6.7383 12.375C6.7383 12.7476 6.43635 13.05 6.0633 13.05C5.69025 13.05 5.3883 12.7476 5.3883 12.375V6.075C5.3883 5.78115 5.57865 5.52105 5.85855 5.4315C6.1398 5.3424 6.44445 5.445 6.6141 5.68485L14.1637 16.3517C16.4776 14.7191 18 12.0307 18 9C18 4.05 13.95 0 9 0C4.05 0 0 4.05 0 9C0 13.95 4.05 18 9 18C10.4364 18 11.7927 17.6503 13.0005 17.0451L6.7383 8.1972V12.375ZM11.2383 5.625C11.2383 5.2524 11.5403 4.95 11.9133 4.95C12.2864 4.95 12.5883 5.2524 12.5883 5.625V11.853L11.2383 9.95085V5.625Z" fill="black"/>
</svg>
