<svg width="18" height="17" viewBox="0 0 18 17" fill="none" xmlns="http://www.w3.org/2000/svg">
<path d="M8.99997 9.53262C8.66113 9.53262 8.33616 9.39801 8.09656 9.15842C7.85697 8.91882 7.72236 8.59385 7.72236 8.25501C7.72236 7.91617 7.85697 7.5912 8.09656 7.3516C8.33616 7.112 8.66113 6.9774 8.99997 6.9774C9.33881 6.9774 9.66378 7.112 9.90338 7.3516C10.143 7.5912 10.2776 7.91617 10.2776 8.25501C10.2776 8.59385 10.143 8.91882 9.90338 9.15842C9.66378 9.39801 9.33881 9.53262 8.99997 9.53262ZM8.55025 12.0827C8.69931 12.2616 8.84921 12.4353 8.99997 12.6014C9.15073 12.4353 9.30063 12.2624 9.44969 12.0827C9.14991 12.0891 8.85003 12.0891 8.55025 12.0827V12.0827ZM6.85103 11.9763C6.19695 11.9082 5.54719 11.8036 4.90481 11.6628C4.84092 11.9609 4.79238 12.2505 4.76001 12.5282C4.59818 13.8765 4.82389 14.6959 5.16714 14.8935C5.51039 15.0919 6.33232 14.8773 7.41999 14.0639C7.644 13.8961 7.86971 13.7096 8.09627 13.506C7.65294 13.0197 7.23721 12.509 6.85103 11.9763V11.9763ZM13.0951 11.6628C12.4844 11.7991 11.832 11.9047 11.1489 11.9763C10.7627 12.509 10.347 13.0197 9.90367 13.506C10.1302 13.7104 10.3559 13.8961 10.5799 14.0639C11.6676 14.8773 12.4895 15.0919 12.8328 14.8935C13.1761 14.6959 13.4009 13.8765 13.2408 12.5282C13.2056 12.2377 13.1573 11.9489 13.096 11.6628H13.0951ZM14.3302 11.3332C14.8216 13.5809 14.5635 15.3704 13.4716 16.0007C12.3797 16.631 10.7009 15.9598 8.99997 14.4105C7.29905 15.9598 5.62027 16.6302 4.52834 15.9999C3.43641 15.3696 3.17833 13.5809 3.66893 11.3323C1.47655 10.6348 0.0567017 9.51558 0.0567017 8.25501C0.0567017 6.99443 1.47655 5.8761 3.66893 5.17682C3.17833 2.92908 3.43641 1.13957 4.52834 0.509285C5.62027 -0.121002 7.29905 0.550169 8.99997 2.09948C10.7009 0.550169 12.3797 -0.12015 13.4716 0.510137C14.5635 1.14042 14.8216 2.92908 14.331 5.17767C16.5234 5.87525 17.9432 6.99443 17.9432 8.25501C17.9432 9.51558 16.5234 10.6339 14.331 11.3332H14.3302ZM8.09542 3.00403C7.87882 2.80797 7.65344 2.62181 7.41999 2.44614C6.33232 1.63273 5.51039 1.41809 5.16714 1.61655C4.82389 1.81415 4.59903 2.63352 4.75916 3.98183C4.79323 4.26035 4.84092 4.54909 4.90395 4.8472C5.54662 4.70643 6.19666 4.60179 6.85103 4.53376C7.25561 3.97757 7.67296 3.46568 8.09627 3.00403H8.09542ZM11.1489 4.53376C11.832 4.6053 12.4844 4.71177 13.0951 4.8472C13.159 4.54909 13.2076 4.2595 13.2399 3.98183C13.4018 2.63352 13.1761 1.81415 12.8328 1.61655C12.4895 1.41809 11.6676 1.63273 10.5799 2.44614C10.3462 2.62179 10.1205 2.80795 9.90367 3.00403C10.327 3.46568 10.7443 3.97757 11.1489 4.53376V4.53376ZM9.44969 4.42729C9.30063 4.24842 9.15073 4.07467 8.99997 3.90858C8.84921 4.07467 8.69931 4.24757 8.55025 4.42729C8.85003 4.42093 9.14991 4.42093 9.44969 4.42729V4.42729ZM5.90986 10.5581C5.75446 10.3018 5.60452 10.0423 5.46014 9.77962C5.37922 9.99852 5.30427 10.214 5.23613 10.4278C5.45503 10.4755 5.67989 10.5189 5.90901 10.5581H5.90986ZM7.55542 10.7574C8.51713 10.8289 9.48281 10.8289 10.4445 10.7574C10.9873 9.96015 11.4701 9.12372 11.8891 8.25501C11.4701 7.3863 10.9873 6.54987 10.4445 5.7526C9.48281 5.68117 8.51713 5.68117 7.55542 5.7526C7.01269 6.54987 6.52985 7.3863 6.11087 8.25501C6.52985 9.12372 7.01269 9.96015 7.55542 10.7574V10.7574ZM12.5398 6.73039C12.6207 6.5115 12.6957 6.29601 12.7638 6.08222C12.5405 6.03377 12.3162 5.99032 12.0909 5.9519C12.246 6.2082 12.3957 6.46775 12.5398 6.73039ZM4.00026 6.4127C3.71067 6.50639 3.43641 6.6086 3.17918 6.71932C1.93138 7.25421 1.33431 7.85895 1.33431 8.25501C1.33431 8.65107 1.93053 9.2558 3.17918 9.7907C3.43641 9.90142 3.71067 10.0036 4.00026 10.0973C4.18934 9.50111 4.42357 8.88274 4.70294 8.25501C4.4345 7.65451 4.1999 7.03944 4.00026 6.4127V6.4127ZM5.23528 6.08222C5.30427 6.29516 5.37922 6.5115 5.46014 6.72954C5.60453 6.46718 5.75447 6.20791 5.90986 5.9519C5.67989 5.99108 5.45503 6.03452 5.23613 6.08222H5.23528ZM13.9997 10.0973C14.2893 10.0036 14.5635 9.90142 14.8208 9.7907C16.0686 9.2558 16.6656 8.65107 16.6656 8.25501C16.6656 7.85895 16.0694 7.25421 14.8208 6.71932C14.5518 6.60476 14.2779 6.50245 13.9997 6.4127C13.8106 7.00891 13.5764 7.62728 13.297 8.25501C13.5764 8.88274 13.8106 9.50025 13.9997 10.0973V10.0973ZM12.7647 10.4278C12.6957 10.2149 12.6207 9.99852 12.5398 9.78048C12.3954 10.0428 12.2455 10.3021 12.0901 10.5581C12.3201 10.5189 12.5449 10.4755 12.7638 10.4278H12.7647Z" fill="#011221"/>
</svg>
