<svg width="18" height="18" viewBox="0 0 18 18" fill="none" xmlns="http://www.w3.org/2000/svg">
<g clip-path="url(#clip0_3720_1002)">
<path d="M17.5462 5.31075C17.1802 5.1555 16.7565 5.30925 16.5787 5.66475C16.4107 6.00075 16.1865 6.207 15.8932 6.29325C15.4342 6.4305 14.886 6.25425 14.6295 6.1035C14.2912 5.90475 13.899 5.60325 13.4842 5.2845C12.1605 4.266 10.5135 3 8.24997 3C6.43947 3 5.50947 3.92925 3.96972 5.46975C3.67647 5.763 3.67422 6.24 3.96747 6.5325C4.25247 6.819 4.70997 6.828 5.00397 6.555C5.01147 6.54825 5.01897 6.54075 5.02647 6.534C5.44047 6.2145 8.04897 6.525 9.18897 7.431C10.8832 8.77725 12.1065 9.75 13.5 9.75C15.4942 9.75 17.1592 8.44425 17.955 6.2565C18.0907 5.883 17.9115 5.46825 17.5462 5.31075ZM13.7962 10.5608C13.4302 10.4055 13.0065 10.5593 12.8287 10.9148C12.6607 11.2508 12.4365 11.457 12.1432 11.5432C11.6842 11.6782 11.136 11.5042 10.8795 11.3535C10.5412 11.1547 10.149 10.8532 9.73422 10.5345C8.41047 9.516 6.76347 8.25 4.49997 8.25C2.68947 8.25 1.75947 9.17925 0.219723 10.7198C-0.073527 11.013 -0.075777 11.49 0.217473 11.7825C0.502473 12.069 0.960723 12.0787 1.25472 11.805C1.26222 11.7982 1.26972 11.7907 1.27722 11.784C1.69047 11.4645 4.30047 11.775 5.43972 12.681C7.13322 14.0273 8.35647 15 9.74997 15C11.7442 15 13.4092 13.6943 14.205 11.5065C14.3407 11.133 14.1615 10.7183 13.7962 10.5608Z" fill="black"/>
</g>
<defs>
<clipPath id="clip0_3720_1002">
<rect width="18" height="18" fill="white"/>
</clipPath>
</defs>
</svg>
