<svg xmlns="http://www.w3.org/2000/svg" viewBox="0 0 1163.5 384.03">
  <defs>
    <style>.cls-1{fill:#ffffff;}.cls-2{fill:#011627;}</style>
    <linearGradient id="GFGGradient" x2="0%" y2="100%">
      <stop offset="50%" stop-color="#43D9AD" />
      <stop offset="100%" stop-color="#4d5bce" />
    </linearGradient>
  </defs>
  <g id="Camada_2" data-name="Camada 2">
    <g id="Camada_2-2" data-name="Camada 2">
      <polygon
        fill="url(#GFGGradient)"
        points="273 36.53 245.2 151.69 238 181.53 195 181.53 247 3.53 299.37 3.53 351 181.53 307 181.53 273 36.53" />
    </g>
    <g id="Camada_3" data-name="Camada 3">
      <polygon
        fill="#4d5bce"
        points="197 201.53 241.17 201.53 275 347.53 309 201.53 352.14 201.53 301 380.53 247.96 380.53 197 201.53" />
    </g>
    <g id="Camada_4" data-name="Camada 4">
      <polygon fill="#fff"
        points="0 181.53 0 3.53 54 3.53 54.84 3.53 87 124.53 118 3.53 173 3.53 173 181.53 140 181.53 139 42.53 104 181.53 69 181.53 34 42.53 33.58 181.53 0 181.53" />
    </g>
    <g id="Camada_5" data-name="Camada 5">
      <path
        fill="#ffffff"
        d="M476,102.53c52-7,47-49,47-49-1-56-58.12-50-58.12-50H377v178h35.93l.07-74h21s13,3,19,13l41.16,61h43.71l-36.87-57s-16-19-25-22" />
      <path class="cls-2" d="M413,77.53V33.44h55S486,36.53,486,54.53s-13,22-22,23Z" fill="#fff" />
    </g>
    <g id="Camada_6" data-name="Camada 6">
      <rect x="368.98" y="201.53" width="36.52" height="179" fill="#fff" />
    </g>
    <g id="Camada_7" data-name="Camada 7">
      <path fill="#fff"
        d="M562.5,258l36-7s-7-53-76-52c0,0-86-6-88.67,92,0,0-4,93,91.32,93,0,0,41.35,1,75.35-28V285.1H523v29.43h41v23s-19,16-42,15c0,0-52,5-51-64,0,0-5-52,44-58h16S557,233.53,562.5,258Z" />
    </g>
    <g id="Camada_8" data-name="Camada 8">
      <polygon fill="#fff"
        points="776.5 381.03 739.68 381.03 667.5 264.03 667.5 381.03 633.5 381.03 633.5 202.03 669.5 202.03 742 320.53 742.55 202.03 776.5 202.03 776.5 381.03" />
    </g>
    <g id="Camada_9" data-name="Camada 9">
      <path fill="#fff"
        d="M670.5,61s-4-29-37-30c0,0-47-3-45,60,0,0-5,61,43,63,0,0,30,5,41-38l35,11s-13,61-74,58l-6.29.1S557.5,184,551.5,103V84.58s0-82.55,81-84.55h5.37S692.5-2,706.5,52Z" />
    </g>
    <g id="Camada_10" data-name="Camada 10">
      <polygon fill="#fff"
        points="835.37 381.03 796.3 381.03 866.5 202.03 904.4 202.03 976.66 381.03 936.45 381.03 920.5 340.03 849.5 340.03 835.37 381.03" />
      <polygon class="cls-2"
        points="860.5 310.03 909.54 310.03 885.5 244.03 884.51 244.03 860.5 310.03" />
    </g>
    <g id="Camada_11" data-name="Camada 11">
      <polygon fill="#fff"
        points="1016.5 381.03 1053.49 381.03 1053.5 232.03 1106.49 232.03 1106.5 202.03 963.5 202.03 963.5 232.04 1016.5 232.03 1016.5 381.03" />
      <rect x="1127.55" y="202.03" width="35.95" height="179" fill="#fff" />
    </g>
    <g id="Camada_13" data-name="Camada 13">
      <path fill="#fff"
        d="M814.8,0s-78.3-4-83.3,85v16.76s.59,80.45,83.3,83.34h11S902,183.53,905,97.53V79.6S902.23,3.53,822.12,0Z" />
      <path class="cls-2"
        d="M814,31.53s-43-1-45,52v17.3s-1,45.7,43,52.7h14.07s38.93-5,40.93-51V80.79s-1.87-47.27-43.43-49.26Z" />
    </g>
  </g>
</svg>