<svg width="18" height="18" viewBox="0 0 18 18" fill="none" xmlns="http://www.w3.org/2000/svg">
<path d="M16.8583 0H1.14342C0.512277 0 0 0.512277 0 1.14342V16.8566C0 17.4877 0.512277 18 1.14342 18H16.8566C17.4877 18 18 17.4877 18 16.8583V1.14342C18 0.512277 17.4877 0 16.8583 0ZM9.85714 13.793C9.85714 15.5056 8.85268 16.2857 7.38616 16.2857C6.06027 16.2857 5.10435 15.3968 4.71429 14.5714L6.06194 13.7561C6.32143 14.2165 6.71652 14.5714 7.28571 14.5714C7.8298 14.5714 8.14286 14.3588 8.14286 13.5318V8.14286H9.85714V13.793ZM13.5753 16.2857C12.0569 16.2857 11.1948 15.5206 10.7143 14.5714L12 13.7143C12.3499 14.2868 12.7316 14.8343 13.5385 14.8343C14.2165 14.8343 14.5714 14.4961 14.5714 14.0273C14.5714 13.4682 14.2031 13.269 13.4581 12.9425L13.0497 12.7667C11.8694 12.2645 11.0843 11.635 11.0843 10.3025C11.0843 9.07701 12.0201 8.14286 13.4799 8.14286C14.5195 8.14286 15.2662 8.50446 15.8052 9.45201L14.5329 10.2706C14.2517 9.76674 13.9503 9.5692 13.4799 9.5692C13.0011 9.5692 12.6981 9.87388 12.6981 10.2706C12.6981 10.7612 13.0011 10.9587 13.7026 11.2634L14.111 11.4392C15.5022 12.0335 16.2857 12.6412 16.2857 14.0073C16.2857 15.4788 15.1289 16.2857 13.5753 16.2857Z" fill="#607B96"/>
</svg>
