<svg width="15" height="18" viewBox="0 0 15 18" fill="none" xmlns="http://www.w3.org/2000/svg">
<path d="M8.71815 0C9.76911 2.29116 4.95024 3.70607 4.50239 5.61467C4.09186 7.36855 7.36565 9.40654 7.36863 9.40654C6.87152 8.68079 6.50577 8.08304 6.00717 6.95364C5.16371 5.04364 11.144 3.31507 8.71815 0ZM11.9188 3.17302C11.9188 3.17302 7.69108 3.429 7.47611 5.97473C7.38057 7.10835 8.58828 7.7047 8.62261 8.52889C8.65098 9.2026 7.90605 9.7666 7.90605 9.7666C7.90605 9.7666 9.26154 9.52328 9.68551 8.49514C10.1558 7.35448 8.76891 6.58373 8.90924 5.67093C9.04359 4.7975 11.9188 3.17302 11.9188 3.17302ZM5.27866 9.05773C5.27866 9.05773 1.40924 9.00569 1.40924 10.0366C1.40924 11.114 6.47442 11.1942 10.0916 10.5317C10.0916 10.5317 11.0529 9.90865 11.3097 9.67658C8.93909 10.1323 3.53503 10.1829 3.53503 9.7891C3.53503 9.42623 5.27866 9.05773 5.27866 9.05773ZM12.7189 9.05773C12.3398 9.08586 11.9307 9.2237 11.5605 9.47405C12.4323 9.29683 13.1728 9.80598 13.1728 10.3854C13.1728 11.6907 11.1664 12.9171 11.1664 12.9171C11.1664 12.9171 14.2715 12.5852 14.2715 10.4417C14.2715 9.46842 13.5534 8.99585 12.7189 9.05773ZM4.34713 11.0606C3.75299 11.0606 2.86624 11.4994 2.86624 11.9157C2.86624 12.7526 7.3328 13.3967 10.6409 12.1745L9.49443 11.5106C7.25219 12.1871 3.12301 11.9663 4.34713 11.0606ZM4.8965 12.9396C4.0829 12.9396 3.54697 13.4023 3.54697 13.7497C3.54697 14.8243 8.40615 14.9326 10.3304 13.8398L9.11226 13.1084C7.67466 13.6808 4.06648 13.768 4.8965 12.9396ZM2.18551 13.9073C0.859873 13.882 0 14.4431 0 14.9087C0 17.3841 13.5669 17.2702 13.5669 14.7399C13.5669 14.3194 13.0519 14.1154 12.8623 14.0198C13.9714 16.4389 1.75557 16.2463 1.75557 14.8187C1.75557 14.4938 2.65426 14.1829 3.48726 14.3348L2.78264 13.9523C2.57514 13.9227 2.3751 13.9115 2.18551 13.9073ZM15 15.5725C12.9369 17.415 7.709 18.0831 2.44825 16.9453C7.7075 18.9734 14.9746 17.8356 15 15.5725Z" fill="#607B96"/>
</svg>
