<svg width="21" height="16" viewBox="0 0 21 16" fill="none" xmlns="http://www.w3.org/2000/svg">
<path fill-rule="evenodd" clip-rule="evenodd" d="M6.21912 14.6605C6.20396 14.6337 6.19045 14.606 6.17868 14.5775C6.09705 14.3886 6.07191 14.1801 6.10632 13.9773H1.27695L8.45396 1.34728L10.8101 5.48917L11.4933 4.28024L9.43941 0.661936C9.38194 0.557644 9.03501 0 8.43693 0C8.16662 0 7.77925 0.117063 7.46424 0.67045L0.193591 13.4537C0.131867 13.5644 -0.168239 14.1454 0.129738 14.6605C0.265957 14.8946 0.555421 15.1734 1.19394 15.1734H7.28333C6.64906 15.1734 6.35534 14.8989 6.21912 14.6605Z" fill="#607B96"/>
<path fill-rule="evenodd" clip-rule="evenodd" d="M20.2198 13.4537L14.2454 2.92869C14.1837 2.81801 13.8389 2.25824 13.2386 2.25824C12.9683 2.25824 12.581 2.37317 12.266 2.92656L11.4933 4.28023L12.1808 5.48917L13.245 3.60552L19.1556 13.9773H16.908C16.9368 14.1487 16.9207 14.3247 16.8612 14.4881C16.8487 14.5242 16.833 14.5591 16.8144 14.5924L16.7952 14.6307C16.493 15.1458 15.8396 15.1734 15.7119 15.1734H19.228C19.3578 15.1734 20.0091 15.1458 20.3114 14.6307C20.4454 14.3966 20.5412 14.0028 20.2198 13.4537Z" fill="#607B96"/>
<path fill-rule="evenodd" clip-rule="evenodd" d="M16.7952 14.6307L16.8144 14.5924C16.833 14.5591 16.8487 14.5242 16.8612 14.4881C16.9206 14.3247 16.9368 14.1487 16.908 13.9773C16.8749 13.7924 16.8085 13.615 16.7122 13.4537L12.1851 5.48918L11.4933 4.28024L10.8059 5.48918L6.28085 13.4537C6.19299 13.6169 6.13395 13.794 6.10632 13.9773C6.0699 14.1795 6.09282 14.388 6.1723 14.5775C6.18407 14.606 6.19758 14.6337 6.21274 14.6605C6.34896 14.8946 6.63843 15.1735 7.27695 15.1735H15.7055C15.8395 15.1735 16.493 15.1458 16.7952 14.6307ZM11.4933 6.69812L15.631 13.9773H7.35783L11.4933 6.69812Z" fill="#607B96"/>
</svg>
