<svg width="17" height="18" viewBox="0 0 17 18" fill="none" xmlns="http://www.w3.org/2000/svg">
<path d="M12.6438 0C12.0308 0 11.4992 0.119821 11.0091 0.241219C11.8679 0.603836 12.3995 1.04844 12.6853 1.25024C13.3398 1.81466 13.7069 2.38066 14.3614 3.30928C14.4828 3.51108 14.6871 3.79329 14.81 4.23631C14.9329 4.63992 14.9329 4.96313 14.9329 5.28633C14.9329 5.73093 14.8914 6.09354 14.8499 6.45616C14.81 6.73995 14.81 6.86135 14.7701 6.94175C14.7701 6.98275 14.7701 7.02216 14.7286 7.10257C14.7286 7.30437 14.7286 7.38635 14.7701 7.54717C14.7701 7.70798 14.81 7.87037 14.81 8.15258C14.8515 8.67759 14.8515 9.0402 14.7701 9.48323V9.64562C14.6871 10.0082 14.6057 10.3724 14.4013 10.6941C14.4429 10.776 14.4828 10.8155 14.5243 10.8959C14.7286 10.6136 14.8914 10.3314 15.0543 10.0098C15.5459 9.12061 15.8317 8.35438 16.036 7.78996C16.4032 6.73995 16.6075 5.97215 16.7304 5.40773C17.0162 4.1969 17.0577 3.63248 16.9348 2.98607C16.9348 2.78427 16.8534 2.42008 16.649 2.05746C16.1988 1.25024 15.5044 0.887623 15.0143 0.644828C14.6871 0.484015 13.8283 0.0394148 12.6438 0ZM3.79036 0.178155C3.31944 0.168696 2.74475 0.220723 2.09982 0.52343C1.89549 0.605413 1.28248 0.887623 0.792402 1.53245C0.465149 1.93606 0.220906 2.54147 0.0979864 3.22729C-0.024933 3.83271 -0.0664384 4.56109 0.179401 5.93273C0.342229 6.90076 0.506654 7.54717 0.833907 8.87781C0.875412 9.0402 1.11966 9.76701 1.65124 11.3814L1.69115 11.4619C1.77416 11.7441 2.0184 12.3495 2.54999 12.9549C2.91715 13.3585 3.24441 13.6013 3.53175 13.6013H3.61157C4.14316 13.6013 4.51191 13.1977 4.83757 12.8745C4.83757 12.8335 5.615 11.9065 5.90075 11.5833C5.85924 11.5423 5.77942 11.5423 5.73792 11.5013C5.24784 11.2191 4.87908 10.776 4.59333 10.2904C4.10325 9.40282 4.14316 8.5152 4.22457 8.0706L4.26608 7.38635C4.10325 6.29535 4.14475 5.24691 4.34909 4.1969C4.51191 3.30928 4.71625 2.42165 5.45057 1.49304C5.69641 1.16983 5.98216 0.887623 6.26791 0.685819C5.615 0.403609 4.92058 0.241219 4.22457 0.201804C4.09207 0.190768 3.9468 0.181308 3.79036 0.178155ZM8.92425 0.52343C8.71991 0.52343 8.51558 0.52343 8.31125 0.564421C7.49391 0.725234 6.71808 1.16983 6.10508 1.93606C5.49208 2.70386 5.32925 3.4291 5.16642 4.27731C5.08341 4.60051 5.08341 4.88272 5.04191 5.20592C5.28774 5.00412 5.615 4.76132 6.10508 4.63992C6.39083 4.55952 7.12675 4.3183 7.73975 4.68091C7.94408 4.80231 8.22983 5.04511 8.51558 5.73093C9.12858 7.42577 8.51718 9.1616 8.43576 9.32241C8.39426 9.48323 8.31284 9.60462 8.27134 9.68503C8.18992 9.88684 8.10851 10.0492 8.02709 10.3724C7.98559 10.6546 7.94408 10.8974 7.94408 11.1796C8.067 11.1796 8.18992 11.2191 8.31125 11.2995C8.51558 11.5013 8.55708 11.7851 8.59859 11.9049C8.68 12.5513 8.68 13.3585 8.68 14.1657C8.68 14.8121 8.68 15.4175 8.71991 15.8211C8.80292 16.7498 9.08867 17.3946 9.49734 17.7178C9.78309 17.9606 10.1502 17.959 10.3546 18H10.4376C11.0506 18 12.0308 17.5964 12.3979 17.032C12.6023 16.7088 12.6853 16.4266 12.7667 16.0229C12.8082 15.7802 12.8066 15.6603 12.8481 15.4175C12.8481 15.2961 12.8896 15.0943 12.8896 14.8531C12.8896 14.6513 12.9295 14.4085 12.971 14.1247C13.0125 13.4389 13.1338 12.6333 13.1753 12.1887C13.2169 11.6637 13.4611 11.2191 13.6654 10.9368C13.3797 10.8959 13.0939 10.6546 12.9311 10.251C12.6853 9.80643 12.6438 9.68503 12.6023 9.48323C12.5623 9.32241 12.4809 9.12061 12.1936 8.5152C11.5806 7.14356 11.5008 6.73995 11.5008 6.41675C11.4593 5.97215 11.4178 5.36831 11.9094 4.9647C12.6438 4.3183 13.584 4.35929 14.0741 4.5201V4.43812C13.9927 4.11649 13.8299 3.8737 13.7069 3.71288C13.0939 2.78427 12.7667 2.30025 12.1936 1.81624C11.9493 1.61443 11.3363 1.12884 10.4376 0.807217C10.0289 0.685819 9.53725 0.52343 8.92425 0.52343ZM13.4419 5.25637C13.145 5.23588 12.7667 5.28633 12.4394 5.57011C12.2766 5.73093 12.2766 6.05413 12.3181 6.33634C12.3181 6.53814 12.358 6.82036 12.971 8.19357C13.2568 8.8384 13.3382 9.0402 13.3797 9.20259C13.4212 9.36341 13.4611 9.44381 13.7069 9.88684C13.7484 9.96882 13.7883 10.0492 13.8698 10.1296C13.9512 10.0082 13.9927 9.80643 14.0326 9.48323L14.0741 9.36341C14.1555 9.00079 14.1156 8.717 14.1156 8.23299C14.1156 7.99019 14.0741 7.82938 14.0741 7.70798C14.0326 7.50617 14.0326 7.34536 14.0326 7.10257C13.9512 6.98117 13.9512 6.94175 13.9927 6.85977C13.9927 6.77936 14.0326 6.65954 14.0741 6.41675C14.1156 6.09354 14.1571 5.81133 14.1571 5.48813C14.0741 5.44714 14.0342 5.40773 13.9528 5.36831C13.9528 5.36831 13.7373 5.27687 13.4419 5.25637ZM7.05172 5.41561C6.79151 5.38565 6.49299 5.46921 6.30941 5.52912C5.85924 5.65052 5.57509 5.93273 5.37076 6.09354C5.24784 6.21494 5.12492 6.33634 5.002 6.49715C5.002 6.77936 5.04191 7.06315 5.08341 7.34536V7.38635L5.002 8.19357C4.92058 8.55619 4.87908 9.24201 5.28774 9.92783C5.49208 10.3314 5.77942 10.6546 6.14658 10.8564C6.39242 11.0173 6.71808 11.1387 7.08524 11.2206C7.08524 10.9368 7.12675 10.6136 7.16825 10.3314C7.24967 9.92783 7.33108 9.72602 7.454 9.48323C7.49551 9.36341 7.53542 9.283 7.61843 9.1616C7.65834 9.0402 8.22983 7.50617 7.69824 6.09354C7.57692 5.77034 7.454 5.56854 7.28958 5.48813C7.21934 5.44714 7.13633 5.42507 7.05172 5.41561ZM13.0476 5.64579C13.1546 5.63948 13.2568 5.64894 13.2983 5.68994C13.4212 5.77034 13.2568 5.97215 13.2153 6.01314C13.1753 6.05413 13.0939 6.13454 12.971 6.17553C12.8082 6.21494 12.6853 6.09354 12.6438 6.09354C12.6023 6.05255 12.4809 5.93273 12.5224 5.81133C12.5623 5.73093 12.6039 5.73093 12.7667 5.68994C12.8273 5.66944 12.9407 5.65052 13.0476 5.64579ZM6.90485 5.98003C7.04214 5.97057 7.15708 6.0226 7.24967 6.05255C7.37259 6.09354 7.49391 6.13454 7.49391 6.21494C7.53542 6.33634 7.41409 6.41675 7.37259 6.45616C7.24967 6.57756 7.04533 6.57914 7.04533 6.57914C6.841 6.57914 6.71808 6.45774 6.63667 6.33634C6.59516 6.29535 6.55525 6.21494 6.59676 6.13454C6.63667 6.05413 6.71808 6.01314 6.75959 6.01314C6.81067 5.99264 6.85856 5.98318 6.90485 5.98003ZM14.4013 11.2601C14.197 11.5423 13.9113 11.9065 13.8698 12.3905C13.8698 12.4709 13.8698 12.5119 13.8283 12.5923C14.1555 12.6727 14.4429 12.6727 14.7286 12.6333C15.3831 12.5513 15.8317 12.2281 15.9131 12.1477C16.1988 11.9459 16.5676 11.5423 16.4846 11.3814C16.4447 11.301 16.3218 11.3405 15.6673 11.3814C15.5044 11.3814 15.0143 11.5028 14.6871 11.4224H14.6057C14.5243 11.3814 14.4429 11.3405 14.4013 11.2601ZM7.28958 12.0673C7.20816 12.1887 7.08684 12.2691 7.00543 12.3495C6.67817 12.5513 6.26791 12.7137 5.85924 12.7941C5.49208 12.9155 5.28774 12.9155 5.28774 13.0369C5.24624 13.1977 5.65491 13.3995 5.85924 13.4799C6.55525 13.7621 7.24967 13.6013 7.37259 13.5603C7.454 13.5193 7.65834 13.4389 7.86267 13.3175C7.86267 12.8745 7.82276 12.4709 7.78125 12.1477V12.1067H7.73975C7.61683 12.1067 7.454 12.1083 7.28958 12.0673Z" fill="#607B96"/>
</svg>
