<svg width="18" height="18" viewBox="0 0 18 18" fill="none" xmlns="http://www.w3.org/2000/svg">
<g clip-path="url(#clip0_3721_1031)">
<path d="M0.0836016 7.70229C0.0407217 8.00283 0.01282 8.30531 0 8.60862H13.6722C13.6245 8.51535 13.5604 8.43126 13.4957 8.34896C11.1583 5.3292 9.90098 5.59102 8.10237 5.51431C7.50271 5.48965 7.09604 5.47973 4.70914 5.47973C3.43162 5.47973 2.04275 5.48299 0.690293 5.48659C0.515215 5.95916 0.346359 6.41721 0.264146 6.78983H7.27028V7.70229H0.0836016ZM13.78 9.522H0.00701367C0.0214277 9.76547 0.0441387 10.0057 0.0769395 10.2427H12.7928C13.3596 10.2427 13.677 9.92106 13.78 9.522ZM0.791314 12.7319C0.791314 12.7319 2.89935 17.9081 8.99051 18C12.6311 18 15.7593 15.8378 17.1803 12.7319H0.791314Z" fill="#607B96"/>
<path d="M8.99036 0C5.62413 0 2.69488 1.84852 1.14798 4.58107C2.35685 4.57854 4.71114 4.5771 4.71114 4.5771H4.71168V4.5762C7.49446 4.5762 7.59789 4.58863 8.14149 4.61132L8.4781 4.62373C9.65056 4.66283 11.0917 4.78869 12.2256 5.6466C12.8411 6.11191 13.7298 7.13892 14.2595 7.87059C14.7493 8.54733 14.8901 9.32528 14.5572 10.0706C14.2507 10.7557 13.5912 11.1643 12.7926 11.1643H0.293335C0.293335 11.1643 0.367743 11.4797 0.479312 11.8278H17.5412C17.8442 10.9171 17.9991 9.96365 18 9.00383C18.0001 4.03163 13.9663 0 8.99036 0Z" fill="#607B96"/>
</g>
<defs>
<clipPath id="clip0_3721_1031">
<rect width="18" height="18" fill="white"/>
</clipPath>
</defs>
</svg>
