<svg width="18" height="18" viewBox="0 0 18 18" fill="none" xmlns="http://www.w3.org/2000/svg">
<mask id="mask0_3721_1028" style="mask-type:luminance" maskUnits="userSpaceOnUse" x="0" y="0" width="18" height="18">
<path d="M18 0H0V18H18V0Z" fill="white"/>
</mask>
<g mask="url(#mask0_3721_1028)">
<path d="M17.9919 8.90397C18.0229 7.00079 17.5909 4.73762 16.6909 2.08228L15.9853 0L15.0269 1.98C14.9756 2.08586 14.917 2.18948 14.8558 2.29176C13.2813 0.950025 11.2383 0.133995 9 0.133995C4.0293 0.133995 0 4.1333 0 9.067C0 14.0007 4.0293 18 9 18C13.9707 18 18 14.0007 18 9.067C18 9.01206 17.9928 8.95891 17.9919 8.90397Z" fill="#607B96"/>
<path d="M15.9033 13.2085C14.5937 15.0727 12.2755 15.1728 10.0937 15.1333H7.25008H6.43738C8.29426 14.443 9.39924 14.2788 10.5277 13.66C12.653 12.5052 14.7539 9.9784 15.1913 7.3498C14.3819 9.87873 11.9292 12.0515 9.69404 12.935C8.16258 13.5387 5.39656 14.1245 5.39656 14.1245L5.28459 14.0617C3.40172 13.0828 3.34469 8.72607 6.76783 7.31947C8.26658 6.70283 9.70033 7.0417 11.3194 6.62917C13.048 6.19063 15.0474 4.8057 15.861 3C16.7718 5.88903 17.868 10.4126 15.9033 13.2085ZM5.95765 15.7595C5.83939 15.9112 5.65865 16 5.46995 16C5.12482 16 4.84302 15.7066 4.84302 15.35C4.84302 14.9934 5.12692 14.7 5.46995 14.7C5.61294 14.7 5.75385 14.7511 5.86455 14.8456C6.13294 15.0705 6.17487 15.4822 5.95765 15.7595Z" fill="#011627"/>
</g>
</svg>
