<svg width="17" height="17" viewBox="0 0 17 17" fill="none" xmlns="http://www.w3.org/2000/svg">
<path d="M16.5952 0H0.404762C0.180929 0 0 0.181333 0 0.404762V16.5952C0 16.8187 0.180929 17 0.404762 17H16.5952C16.8191 17 17 16.8187 17 16.5952V0.404762C17 0.181333 16.8191 0 16.5952 0ZM10.119 9.08488H8.09524V15.381H6.47619V9.08488H4.45238V7.69048H10.119V9.08488ZM10.5728 15.0215V13.3385C10.5728 13.3385 11.492 14.0315 12.595 14.0315C13.698 14.0315 13.6555 13.3102 13.6555 13.2114C13.6555 12.1647 10.5303 12.1647 10.5303 9.84583C10.5303 6.69233 15.0839 7.93657 15.0839 7.93657L15.0272 9.43581C15.0272 9.43581 14.2634 8.92662 13.4009 8.92662C12.5383 8.92662 12.227 9.33664 12.227 9.775C12.227 10.9063 15.3805 10.7934 15.3805 13.0702C15.381 16.577 10.5728 15.0215 10.5728 15.0215Z" fill="#607B96"/>
</svg>
